<svg width="80" height="80" viewBox="0 0 80 80" fill="none" xmlns="http://www.w3.org/2000/svg">
<path fill-rule="evenodd" clip-rule="evenodd" d="M40 80C17.9086 80 0 62.0914 0 40C0 17.9086 17.9086 0 40 0C62.0914 0 80 17.9086 80 40C80 62.0914 62.0914 80 40 80Z" fill="#FFC75E"/>
<path fill-rule="evenodd" clip-rule="evenodd" d="M59.5908 74.8823C53.8008 78.1411 47.1176 80 40.0002 80C32.8829 80 26.1997 78.1411 20.4097 74.8823L21.1007 66.244C21.1927 65.0936 21.9114 64.0876 22.9697 63.6274L33.7463 58.9419C34.8872 58.4459 35.6252 57.3203 35.6252 56.0761V48.75H44.3752V56.0761C44.3752 57.3203 45.1132 58.4459 46.2542 58.9419L57.0307 63.6274C58.0891 64.0876 58.8077 65.0936 58.8998 66.244L59.5908 74.8823Z" fill="#FAE5E0"/>
<path fill-rule="evenodd" clip-rule="evenodd" d="M59.5908 74.8823C53.8008 78.1411 47.1176 80 40.0002 80C32.8829 80 26.1997 78.1411 20.4097 74.8823L21.1007 66.244C21.1927 65.0936 21.9114 64.0875 22.9697 63.6274L33.3543 59.1123C35.0522 60.8187 37.4029 61.875 40.0002 61.875C42.5976 61.875 44.9483 60.8187 46.6461 59.1123L57.0307 63.6274C58.0891 64.0875 58.8077 65.0936 58.8998 66.244L59.5908 74.8823Z" fill="#38B4CA"/>
<path fill-rule="evenodd" clip-rule="evenodd" d="M56.875 33.0886C56.875 23.7889 49.1799 16.25 39.6875 16.25C30.1951 16.25 22.5 23.7889 22.5 33.0886C22.5 44.5784 28.8498 45 39.6875 45C50.5252 45 56.875 42.7869 56.875 33.0886Z" fill="#324B50"/>
<path fill-rule="evenodd" clip-rule="evenodd" d="M54.0625 44.375C55.6158 44.375 57.5 41.3839 57.5 39.0625C57.5 36.7411 56.6173 35.625 55.3125 35.625C54.0077 35.625 52.5 37.4438 52.5 39.6875C52.5 41.9312 52.5092 44.375 54.0625 44.375Z" fill="#FAE5E0"/>
<path fill-rule="evenodd" clip-rule="evenodd" d="M25.9375 44.375C24.3842 44.375 22.5 41.3839 22.5 39.0625C22.5 36.7411 23.3827 35.625 24.6875 35.625C25.9923 35.625 27.5 37.4438 27.5 39.6875C27.5 41.9312 27.4908 44.375 25.9375 44.375Z" fill="#FAE5E0"/>
<path fill-rule="evenodd" clip-rule="evenodd" d="M25.9126 34.375H32.5L35 28.9768V34.375H45L45.0518 28.9768L47.5 34.375H54.0874C54.276 35.3847 54.375 36.4298 54.375 37.5C54.375 46.1295 47.9391 53.125 40 53.125C32.0609 53.125 25.625 46.1295 25.625 37.5C25.625 36.4298 25.724 35.3847 25.9126 34.375Z" fill="#FFF0EC"/>
<path d="M33.125 43.125C34.1605 43.125 35 42.2855 35 41.25C35 40.2145 34.1605 39.375 33.125 39.375C32.0895 39.375 31.25 40.2145 31.25 41.25C31.25 42.2855 32.0895 43.125 33.125 43.125Z" fill="#324B50"/>
<path d="M46.875 43.125C47.9105 43.125 48.75 42.2855 48.75 41.25C48.75 40.2145 47.9105 39.375 46.875 39.375C45.8395 39.375 45 40.2145 45 41.25C45 42.2855 45.8395 43.125 46.875 43.125Z" fill="#324B50"/>
<path fill-rule="evenodd" clip-rule="evenodd" d="M36.25 46.875C36.75 48.9583 38 50 40 50C42 50 43.25 48.9583 43.75 46.875H36.25Z" fill="#F79E89"/>
</svg>
