<?xml version="1.0" standalone="no"?>
<!DOCTYPE svg PUBLIC "-//W3C//DTD SVG 20010904//EN"
 "http://www.w3.org/TR/2001/REC-SVG-20010904/DTD/svg10.dtd">
<svg version="1.0" xmlns="http://www.w3.org/2000/svg"
 width="209.000000pt" height="209.000000pt" viewBox="0 0 209.000000 209.000000"
 preserveAspectRatio="xMidYMid meet">

<g transform="translate(0.000000,209.000000) scale(0.100000,-0.100000)"
fill="#000000" stroke="none">
<path d="M970 1687 c57 -28 67 -37 80 -74 10 -28 29 -52 55 -72 22 -16 54 -41
70 -56 17 -15 45 -39 63 -52 17 -14 32 -34 32 -44 0 -11 7 -19 15 -19 14 0 14
3 1 23 -17 25 -138 135 -178 161 -16 10 -33 35 -41 59 -11 36 -22 47 -73 74
-32 18 -66 32 -74 32 -8 1 14 -14 50 -32z"/>
<path d="M470 1552 c0 -5 -27 -40 -60 -76 -33 -37 -60 -69 -60 -72 0 -2 28 25
62 61 35 38 67 64 75 61 18 -7 17 9 -2 24 -9 7 -15 8 -15 2z"/>
<path d="M680 1540 c-8 -5 -11 -12 -8 -15 9 -10 88 5 88 16 0 12 -61 11 -80
-1z"/>
<path d="M1642 1503 c-3 -70 -27 -124 -68 -151 -19 -12 -38 -22 -44 -22 -15 0
-12 -26 4 -40 15 -12 26 -39 46 -119 6 -23 14 -41 16 -38 9 8 -25 129 -43 156
-12 19 -13 26 -4 29 25 8 79 62 90 90 7 16 10 55 8 88 l-3 59 -2 -52z"/>
<path d="M675 1486 c-24 -35 -16 -77 18 -96 24 -13 30 -13 55 0 17 10 28 26
30 43 4 29 -6 35 -26 15 -9 -9 -13 -7 -18 6 -4 11 -2 21 6 26 9 6 7 11 -8 19
-30 16 -40 14 -57 -13z"/>
<path d="M455 1433 c-8 -46 0 -52 19 -14 19 37 19 38 2 44 -10 4 -16 -5 -21
-30z"/>
<path d="M1479 1384 c-8 -10 -22 -13 -38 -10 -26 5 -26 5 -3 -6 19 -10 26 -8
45 10 12 12 19 22 15 22 -3 0 -11 -7 -19 -16z"/>
<path d="M1378 1383 c6 -2 18 -2 25 0 6 3 1 5 -13 5 -14 0 -19 -2 -12 -5z"/>
<path d="M502 1348 c-15 -15 -16 -45 -1 -54 14 -8 26 5 34 39 8 29 -10 38 -33
15z"/>
<path d="M366 1293 c5 -5 12 -12 16 -18 4 -6 8 -2 8 8 0 9 -7 17 -17 17 -9 0
-12 -3 -7 -7z"/>
<path d="M1074 1224 c-2 -60 -19 -76 -167 -151 -31 -16 -189 -22 -302 -11
l-70 6 60 -13 c33 -8 97 -14 143 -15 l82 0 0 -58 c0 -36 6 -66 15 -78 8 -10
15 -28 15 -39 1 -11 4 -15 7 -7 3 7 -2 28 -11 46 -9 19 -16 56 -16 84 l0 49
48 -8 c63 -12 90 -5 135 37 48 44 76 105 77 162 0 57 -15 54 -16 -4z"/>
<path d="M511 1244 c0 -11 3 -14 6 -6 3 7 2 16 -1 19 -3 4 -6 -2 -5 -13z"/>
<path d="M507 1194 c-10 -13 -13 -24 -7 -24 6 0 13 7 17 15 5 14 8 14 29 0 13
-8 31 -15 41 -14 13 0 11 3 -7 10 -13 6 -31 16 -40 24 -13 11 -18 10 -33 -11z"/>
<path d="M1570 1034 c-8 -44 -13 -121 -12 -176 2 -70 -1 -106 -13 -134 -21
-50 -11 -57 12 -8 13 30 17 60 15 134 -2 52 2 124 9 160 6 36 10 74 8 84 -2
11 -11 -16 -19 -60z"/>
<path d="M934 961 c-2 -46 -1 -48 37 -64 29 -13 39 -23 39 -40 0 -23 -30 -150
-46 -192 -5 -16 -4 -18 6 -8 13 12 37 89 49 161 9 49 14 57 36 48 24 -9 35
-51 35 -133 0 -42 3 -74 6 -70 12 11 13 83 3 145 -10 53 -15 65 -36 73 -13 5
-21 13 -18 19 3 5 2 10 -3 10 -5 0 -17 15 -27 34 -11 21 -29 37 -44 41 -14 4
-28 10 -31 15 -3 4 -6 -13 -6 -39z"/>
<path d="M1303 950 c-18 -11 -33 -21 -33 -23 0 -6 101 1 107 7 8 7 -17 36 -31
36 -6 0 -26 -9 -43 -20z"/>
<path d="M1343 888 c-6 -7 -13 -37 -17 -66 -4 -30 -16 -77 -27 -105 -11 -29
-16 -47 -10 -42 17 18 51 115 51 148 0 18 5 39 10 47 9 13 11 13 20 0 15 -22
28 -77 36 -143 4 -32 10 -53 14 -47 8 13 -6 113 -21 151 -5 14 -11 35 -12 47
-1 24 -28 30 -44 10z"/>
<path d="M863 755 c0 -44 2 -61 4 -37 2 23 2 59 0 80 -2 20 -4 1 -4 -43z"/>
<path d="M1520 660 c0 -5 -7 -10 -15 -10 -8 0 -15 -9 -15 -20 0 -15 7 -20 25
-20 21 0 25 5 25 30 0 17 -4 30 -10 30 -5 0 -10 -4 -10 -10z"/>
<path d="M580 630 c-20 -20 -21 -29 -18 -130 1 -60 7 -112 11 -117 10 -9 142
-11 152 -2 3 4 9 23 12 43 5 33 4 36 -18 36 -13 0 -30 -9 -37 -20 -14 -22 -42
-26 -60 -8 -17 17 -16 136 2 154 8 8 20 14 26 14 14 0 40 -25 40 -39 0 -6 12
-11 26 -11 25 0 26 2 21 41 -3 22 -8 43 -11 47 -4 3 -33 8 -65 10 -50 4 -62 1
-81 -18z"/>
<path d="M800 510 l0 -140 25 0 c24 0 25 2 25 73 0 72 10 97 38 97 30 0 42
-28 42 -99 0 -69 1 -71 25 -71 25 0 25 1 25 78 0 67 -3 81 -24 105 -25 29 -72
37 -94 15 -9 -9 -12 -2 -12 35 0 43 -2 47 -25 47 l-25 0 0 -140z"/>
<path d="M1270 510 l0 -140 25 0 c24 0 25 3 25 55 0 48 2 55 20 55 25 0 40
-29 40 -74 0 -33 2 -36 30 -36 29 0 30 2 30 42 0 29 -7 49 -22 65 l-21 23 21
23 c17 18 22 36 22 75 0 51 -1 52 -30 52 -29 0 -30 -2 -30 -43 0 -31 -6 -49
-19 -61 -29 -26 -41 -11 -41 50 0 51 -1 54 -25 54 l-25 0 0 -140z"/>
<path d="M1056 554 c-22 -23 -26 -35 -26 -85 0 -33 4 -59 10 -59 6 0 10 -6 10
-14 0 -18 22 -26 68 -26 52 0 82 10 82 26 0 8 5 14 10 14 6 0 10 26 10 59 0
50 -4 62 -26 85 -21 20 -37 26 -69 26 -32 0 -48 -6 -69 -26z m93 -28 c7 -8 11
-36 9 -63 -3 -46 -4 -48 -33 -48 -28 0 -30 3 -33 39 -5 55 5 86 27 86 10 0 24
-6 30 -14z"/>
<path d="M1490 465 c0 -95 0 -95 25 -95 25 0 25 0 25 95 0 95 0 95 -25 95 -25
0 -25 0 -25 -95z"/>
</g>
</svg>
