<svg width="50" height="50" viewBox="0 0 50 50" fill="none" xmlns="http://www.w3.org/2000/svg">
<g clip-path="url(#clip0_432_606)">
<rect width="50" height="50" rx="10" fill="white"/>
<path d="M38.2051 31.8983C37.1874 31.0395 36.3696 29.9686 35.809 28.7607C35.2483 27.5528 34.9584 26.237 34.9594 24.9053V21.1028C34.9552 18.8087 34.1259 16.5926 32.6229 14.8593C31.12 13.126 29.0437 11.9912 26.7733 11.662V10.1885C26.7733 9.82649 26.6295 9.47929 26.3735 9.2233C26.1175 8.9673 25.7703 8.82349 25.4083 8.82349C25.0462 8.82349 24.699 8.9673 24.443 9.2233C24.187 9.47929 24.0432 9.82649 24.0432 10.1885V11.662C21.7727 11.9909 19.6962 13.1256 18.1932 14.859C16.6902 16.5923 15.861 18.8086 15.8571 21.1028V24.9071C15.8574 26.2415 15.566 27.5598 15.0032 28.7697C14.4403 29.9796 13.6197 31.0517 12.5989 31.9111C12.2284 32.2285 11.964 32.6518 11.8413 33.1241C11.7187 33.5963 11.7436 34.0948 11.9129 34.5524C12.0821 35.0101 12.3874 35.4049 12.7878 35.6837C13.1882 35.9625 13.6644 36.112 14.1523 36.112H36.6642C37.1537 36.1118 37.6313 35.9612 38.0324 35.6807C38.4335 35.4002 38.7388 35.0032 38.9069 34.5435C39.075 34.0838 39.0978 33.5836 38.9723 33.1104C38.8468 32.6373 38.579 32.2142 38.2051 31.8983Z" fill="#FFD200"/>
<path d="M25.4081 41.5683C26.5868 41.5668 27.7291 41.1589 28.6421 40.4132C29.5551 39.6676 30.183 38.6299 30.42 37.4752H20.394C20.6318 38.63 21.2602 39.6675 22.1735 40.413C23.0868 41.1586 24.2291 41.5666 25.4081 41.5683Z" fill="#FFE466"/>
</g>
<rect x="1" y="1" width="48" height="48" rx="9" stroke="#FEEE91" stroke-width="2"/>
<defs>
<clipPath id="clip0_432_606">
<rect width="50" height="50" rx="10" fill="white"/>
</clipPath>
</defs>
</svg>
