<?xml version="1.0" standalone="no"?>
<!DOCTYPE svg PUBLIC "-//W3C//DTD SVG 20010904//EN"
 "http://www.w3.org/TR/2001/REC-SVG-20010904/DTD/svg10.dtd">
<svg version="1.0" xmlns="http://www.w3.org/2000/svg"
 width="60.000000pt" height="60.000000pt" viewBox="0 0 60.000000 60.000000"
 preserveAspectRatio="xMidYMid meet">

<g transform="translate(0.000000,60.000000) scale(0.100000,-0.100000)"
fill="#000000" stroke="none">
<path d="M262 403 c2 -20 8 -28 23 -28 31 0 28 49 -3 53 -20 3 -23 0 -20 -25z"/>
<path d="M234 338 c-4 -6 0 -16 9 -23 24 -17 24 -110 1 -119 -12 -4 -15 -15
-12 -36 4 -25 1 -30 -16 -31 -12 -1 5 -5 37 -9 31 -4 72 -4 90 0 l32 8 -34 1
c-34 1 -34 1 -15 22 18 20 18 21 0 35 -15 10 -20 30 -24 89 -5 74 -5 75 -33
75 -15 0 -31 -5 -35 -12z"/>
</g>
</svg>
