<svg width="50" height="50" viewBox="0 0 50 50" fill="none" xmlns="http://www.w3.org/2000/svg">
<mask id="path-1-inside-1_432_839" fill="white">
<path d="M0 12.1248C0 5.42844 5.42844 0 12.1248 0H37.8752C44.5716 0 50 5.42844 50 12.1248V37.8752C50 44.5716 44.5716 50 37.8752 50H12.1248C5.42844 50 0 44.5716 0 37.8752V12.1248Z"/>
</mask>
<path d="M0 12.1248C0 5.42844 5.42844 0 12.1248 0H37.8752C44.5716 0 50 5.42844 50 12.1248V37.8752C50 44.5716 44.5716 50 37.8752 50H12.1248C5.42844 50 0 44.5716 0 37.8752V12.1248Z" fill="white"/>
<path d="M12.1248 2H37.8752V-2H12.1248V2ZM48 12.1248V37.8752H52V12.1248H48ZM37.8752 48H12.1248V52H37.8752V48ZM2 37.8752V12.1248H-2V37.8752H2ZM12.1248 48C6.53301 48 2 43.467 2 37.8752H-2C-2 45.6761 4.32388 52 12.1248 52V48ZM48 37.8752C48 43.467 43.467 48 37.8752 48V52C45.6761 52 52 45.6761 52 37.8752H48ZM37.8752 2C43.467 2 48 6.53301 48 12.1248H52C52 4.32387 45.6761 -2 37.8752 -2V2ZM12.1248 -2C4.32387 -2 -2 4.32388 -2 12.1248H2C2 6.53301 6.53301 2 12.1248 2V-2Z" fill="#D9D9D9" mask="url(#path-1-inside-1_432_839)"/>
<path d="M28.6428 33.3013L20.7856 25.4441L28.6428 17.5869" stroke="#1E1E1E" stroke-width="2.41608" stroke-linecap="round" stroke-linejoin="round"/>
</svg>
