<svg xmlns="http://www.w3.org/2000/svg" viewBox="0 0 500 500" id="start-line">
  <g>
    <path fill="#8491c1" d="M52.08,437.5H31.25c-6.25,0-10.42-4.17-10.42-10.42V72.92c0-6.25,4.17-10.42,10.42-10.42H52.08c6.25,0,10.42,4.17,10.42,10.42V427.08C62.5,433.33,58.33,437.5,52.08,437.5Z"></path>
    <path fill="#8491c1" d="M468.75,437.5H447.92c-6.25,0-10.42-4.17-10.42-10.42V72.92c0-6.25,4.17-10.42,10.42-10.42h20.83c6.25,0,10.42,4.17,10.42,10.42V427.08C479.17,433.33,475,437.5,468.75,437.5Z"></path>
    <path fill="#6c80ad" d="M468.75,62.5H447.92c6.25,0,10.42,4.17,10.42,10.42V427.08c0,6.25-4.17,10.42-10.42,10.42h20.83c6.25,0,10.42-4.17,10.42-10.42V72.92C479.17,66.67,475,62.5,468.75,62.5Z"></path>
    <path fill="#d3dbef" d="M479.17,281.25s-125,10.42-229.17,10.42c-114.58,0-229.17-10.42-229.17-10.42V104.17s125,10.42,229.17,10.42,229.17-10.42,229.17-10.42Z"></path>
    <path fill="#505572" d="M104.17,177.08c6.25,0,10.42-4.17,10.42-10.42s-4.17-10.42-10.42-10.42H72.92c-6.25,0-10.42,4.17-10.42,10.42v31.25c0,6.25,4.17,10.42,10.42,10.42H93.75v10.42H72.92c-6.25,0-10.42,4.17-10.42,10.42s4.17,10.42,10.42,10.42h31.25c6.25,0,10.42-4.17,10.42-10.42V197.92c0-6.25-4.17-10.42-10.42-10.42H83.33V177.08Z"></path>
    <path fill="#505572" d="M343.75,156.25H302.08c-6.25,0-10.42,4.17-10.42,10.42v62.5c0,6.25,4.17,10.42,10.42,10.42s10.42-4.17,10.42-10.42V218.75l25,18.75c2.08,1,4.17,2.08,6.25,2.08a9.47,9.47,0,0,0,8.33-4.17c3.13-4.17,2.08-11.46-2.08-14.58l-16.67-12.5h10.42c6.25,0,10.42-4.17,10.42-10.42V166.67C354.17,160.42,350,156.25,343.75,156.25ZM333.33,187.5H312.5V177.08h20.83Z"></path>
    <path fill="#505572" d="M187.5 156.25H135.42c-6.25 0-10.42 4.17-10.42 10.42s4.17 10.42 10.42 10.42H151v52.08c0 6.25 4.17 10.42 10.42 10.42s10.42-4.17 10.42-10.42V177.08H187.5c6.25 0 10.42-4.17 10.42-10.42S193.75 156.25 187.5 156.25zM427.08 156.25H375c-6.25 0-10.42 4.17-10.42 10.42s4.17 10.42 10.42 10.42h15.63v52.08c0 6.25 4.17 10.42 10.42 10.42s10.42-4.17 10.42-10.42V177.08h15.63c6.25 0 10.42-4.17 10.42-10.42S433.33 156.25 427.08 156.25z"></path>
    <path fill="#505572" d="M249,162.5c-3.12-7.29-15.62-7.29-18.75,0L199,225c-2.08,5.21,0,11.46,4.17,13.54,5.21,2.08,11.46,0,13.54-4.17L224,219.79h29.17l7.29,14.58q3.12,6.25,9.38,6.25c1,0,3.13,0,4.17-1,5.21-2.08,7.29-8.33,4.17-13.54Zm-13.54,35.42,4.17-8.33,4.17,8.33Z"></path>
    <path fill="#bfcae2" d="M458.33,106.25V283.33c13.54-1,20.83-2.08,20.83-2.08V104.17S471.87,105.21,458.33,106.25Z"></path>
  </g>
</svg>